# xmcd
#
# Track frame offsets:
#	150
#	9391
#	28243
#	34138
#	74321
#	99301
#	112108
#	135458
#	146027
#	155737
#
# Disc length: 2376 seconds
#
# Revision: 0
# Processed by: cddbd v1.5.2PL0 Copyright (c) Steve Scherf et al.
# Submitted via: EasyCDDAExtractor 16.0.6.1
#
DISCID=8909460a
DTITLE=James Brown - 2CD
DYEAR=2007
DGENRE=R&B
TTITLE0=Give It Up
TTITLE1=Get On The Good Foot
TTITLE2=Hot Pants
TTITLE3=It's A Man's, Man's, Man's World
TTITLE4=Try Me
TTITLE5=Gonna Have A Funky Good Time (Doing It To Death)
TTITLE6=It's To Funky In Here
TTITLE7=Papa's Got A Brand New Bag
TTITLE8=I Can't Stand Myself
TTITLE9=Jam
EXTD=
EXTT0=
EXTT1=
EXTT2=
EXTT3=
EXTT4=
EXTT5=
EXTT6=
EXTT7=
EXTT8=
EXTT9=
PLAYORDER=
